Coordinates
version=1
nRows=21
nColumns=33
inDegrees=yes

Units are S.I. units (second, meters, Newtons, ...)
Angles are in degrees.

endheader
time	ground_thorax_rot_x	ground_thorax_rot_y	ground_thorax_rot_z	ground_thorax_tx	ground_thorax_ty	ground_thorax_tz	clav_prot_r	clav_elev_r	scapula_abduction_r	scapula_elevation_r	scapula_upward_rot_r	scapula_winging_r	shoulder_elv_r	plane_of_elev_r	axial_rot_r	elbow_flexion_r	pro_sup_r	wrist_flex_r	wrist_dev_r	clav_prot_l	clav_elev_l	scapula_abduction_l	scapula_elevation_l	scapula_upward_rot_l	scapula_winging_l	shoulder_elv_l	plane_of_elev_l	axial_rot_l	elbow_flexion_l	pro_sup_l	wrist_flex_l	wrist_dev_l
     11.02000000	     24.96115735	     31.68948313	     49.94703178	     41.48955277	    781.09660105	    -33.35002203	     13.39725225	     35.55251511	     28.65028271	     45.00000000	    -45.00000000	   1718.72596406	    429.84312977	     22.05024854	   -170.38335094	   2519.41490641	    179.29272974	     12.17829326	     13.66433428	    -12.55844888	    -45.00000000	    -34.30128157	     45.00000000	    -45.00000000	   4058.75125098	  -4606.53536178	     24.90846137	     28.75375411	   2870.64251870	   -308.51215370	     12.30603225	    -15.27581955
     11.03000000	     24.93278681	     31.91286478	     50.04345833	     42.70861594	    779.90479844	    -33.33220260	     13.31707618	     35.64527052	     28.32248841	     45.00000000	    -45.00000000	   1718.91102435	    429.95941776	     21.97591847	   -170.03605412	   2519.26809238	    179.33520993	     12.18132990	     13.30514903	    -12.68372383	    -45.00000000	    -34.05825244	     45.00000000	    -45.00000000	   4058.51622284	  -4606.55482557	     24.72125101	     28.24361798	   2870.69207508	   -308.49697484	     12.13178477	    -15.03453570
     11.04000000	     24.88853066	     32.06316470	     50.23853310	     43.88032219	    778.72229473	    -33.31808600	     13.37203122	     35.51421123	     28.39523554	     45.00000000	    -45.00000000	   1718.86061068	    429.74712129	     21.96744695	   -169.75773848	   2519.48806119	    179.31121564	     12.07596435	     13.50523873	    -12.79382426	    -45.00000000	    -33.99857930	     45.00000000	    -45.00000000	   4058.74266150	  -4606.68411768	     24.79833200	     27.92855542	   2870.62194395	   -308.53528458	     12.28996393	    -15.18078296
     11.05000000	     25.04137254	     32.18762440	     50.21162987	     45.00662066	    777.55186867	    -33.30606587	     13.26417456	     35.73818006	     28.41399466	     45.00000000	    -45.00000000	   1719.07245149	    429.87388472	     21.83479893	   -169.34773757	   2519.57857085	    179.25033544	     11.99393975	     13.25504953	    -12.92401770	    -45.00000000	    -33.86953399	     45.00000000	    -45.00000000	   4058.61013711	  -4606.78670538	     24.57188939	     27.62835677	   2870.59420823	   -308.55783863	     12.20786267	    -15.01347246
     11.06000000	     24.99870502	     32.41580971	     50.29072759	     46.08993583	    776.39485166	    -33.29464749	     13.30627876	     35.63457177	     28.14057372	     45.00000000	    -45.00000000	   1719.13895128	    429.87307241	     21.86692895	   -169.04971996	   2519.61831880	    179.12454212	     11.93417858	     13.21424558	    -13.06362636	    -45.00000000	    -33.75486456	     45.00000000	    -45.00000000	   4058.56144788	  -4606.85585237	     24.51555681	     27.24238078	   2870.58545123	   -308.61409560	     12.17985131	    -14.95197165
     11.07000000	     25.01135136	     32.56231878	     50.38334637	     47.13103740	    775.25279229	    -33.28287999	     13.23461122	     35.75502623	     28.16096020	     45.00000000	    -45.00000000	   1719.27739790	    429.78162956	     21.67611897	   -168.70459929	   2519.70779031	    178.97400504	     11.85559607	     13.07775587	    -13.13017292	    -45.00000000	    -33.56355565	     45.00000000	    -45.00000000	   4058.57569224	  -4606.90938546	     24.44542417	     26.86552780	   2870.58649708	   -308.68256969	     12.18846118	    -14.88620931
     11.08000000	     25.01860635	     32.74279013	     50.45615075	     48.13050675	    774.12518838	    -33.27037051	     13.26715580	     35.65936894	     27.99307070	     45.00000000	    -45.00000000	   1719.32658350	    429.77570935	     21.75402985	   -168.31017690	   2519.83172695	    178.78135355	     11.77482027	     13.09747733	    -13.31950474	    -45.00000000	    -33.51725952	     45.00000000	    -45.00000000	   4058.54319482	  -4607.00759670	     24.33875464	     26.53034527	   2870.60104910	   -308.77948070	     12.17326156	    -14.85992430
     11.09000000	     25.13218231	     32.89137640	     50.45139139	     49.08537903	    773.01302237	    -33.25734526	     13.16000916	     35.85649419	     28.01833330	     45.00000000	    -45.00000000	   1719.49279454	    429.82927165	     21.52345501	   -167.89302748	   2519.87511598	    178.55041689	     11.70633104	     12.92290438	    -13.35474324	    -45.00000000	    -33.31495010	     45.00000000	    -45.00000000	   4058.55897278	  -4607.12778430	     24.27331244	     26.18611854	   2870.54126094	   -308.88142767	     12.21777842	    -14.79034214
     11.10000000	     25.04991438	     33.09630185	     50.63248908	     49.98974938	    771.91937377	    -33.24429927	     13.23679106	     35.64785956	     27.80794571	     45.00000000	    -45.00000000	   1719.42378618	    429.71947369	     21.68484239	   -167.56109597	   2520.05783599	    178.27034329	     11.61549942	     12.96565320	    -13.57494431	    -45.00000000	    -33.26798666	     45.00000000	    -45.00000000	   4058.52876107	  -4607.12834434	     24.07360949	     25.83395729	   2870.53426123	   -309.01942005	     12.17642672	    -14.72550876
     11.11000000	     25.24815728	     33.20537827	     50.44166578	     50.84260817	    770.84145679	    -33.23184603	     13.05628976	     36.01006603	     27.88914045	     45.00000000	    -45.00000000	   1719.73826314	    429.84232296	     21.29200381	   -167.05978708	   2520.02908872	    177.99178229	     11.56128924	     12.77325208	    -13.54590936	    -45.00000000	    -33.05477267	     45.00000000	    -45.00000000	   4058.56178455	  -4607.31041562	     24.15814105	     25.45276250	   2870.52611312	   -309.18811338	     12.27145773	    -14.70971828
     11.12000000	     25.08918711	     33.53558010	     50.81744133	     51.64027130	    769.78008061	    -33.22057791	     13.22016634	     35.60506353	     27.68111371	     45.00000000	    -45.00000000	   1719.42168740	    429.71734556	     21.59676398	   -166.79784504	   2520.35129904	    177.60615658	     11.44506906	     12.87237192	    -13.83253726	    -45.00000000	    -33.02042510	     45.00000000	    -45.00000000	   4058.52863949	  -4607.31707112	     23.81863283	     25.17949731	   2870.44756214	   -309.39171474	     12.23584427	    -14.62918951
     11.13000000	     25.37421684	     33.56162074	     50.53903630	     52.37600064	    768.74140981	    -33.21121995	     12.99520346	     36.02485255	     27.87010993	     45.00000000	    -45.00000000	   1719.75566222	    429.85443225	     21.19109749	   -166.18215172	   2520.30063765	    177.23141602	     11.38523511	     12.72695164	    -13.80277803	    -45.00000000	    -32.89943043	     45.00000000	    -45.00000000	   4058.62670469	  -4607.53665392	     23.89387560	     24.84194900	   2870.41601890	   -309.66524535	     12.36818358	    -14.64006199
     11.14000000	     25.31230680	     33.78803617	     50.62559301	     53.04954309	    767.72299190	    -33.20438389	     13.00161110	     35.95067227	     27.68349813	     45.00000000	    -45.00000000	   1719.67618255	    429.76102375	     21.23946460	   -165.73786054	   2520.39085334	    176.77275737	     11.33298928	     12.75152474	    -13.98357755	    -45.00000000	    -32.78891486	     45.00000000	    -45.00000000	   4058.52097450	  -4607.52831387	     23.73014140	     24.56350618	   2870.41687524	   -309.98742068	     12.35830285	    -14.57301590
     11.15000000	     25.30654324	     33.94342668	     50.62699145	     53.65386648	    766.73195314	    -33.20061962	     13.04546381	     35.90088525	     27.37633723	     45.00000000	    -45.00000000	   1719.88501974	    429.87380475	     21.19739091	   -165.40037227	   2520.37452448	    176.30873119	     11.30459405	     12.58603938	    -14.02020601	    -45.00000000	    -32.57273696	     45.00000000	    -45.00000000	   4058.51429386	  -4607.54161692	     23.69615634	     23.99168429	   2870.37784023	   -310.30274158	     12.34648618	    -14.43647045
     11.16000000	     25.45365845	     34.06031648	     50.54234952	     54.18582223	    765.76949907	    -33.20002045	     12.90793759	     36.04851789	     27.55096320	     45.00000000	    -45.00000000	   1719.78392612	    429.80020682	     21.13707873	   -164.77859690	   2520.57209723	    175.80737583	     11.18861922	     12.70435922	    -14.15742815	    -45.00000000	    -32.62219863	     45.00000000	    -45.00000000	   4058.58321112	  -4607.69885487	     23.57821801	     23.80808477	   2870.27289006	   -310.74221233	     12.51101430	    -14.49666864
     11.17000000	     25.46425405	     34.23235690	     50.42393295	     54.63898703	    764.84155581	    -33.20200585	     12.92627896	     36.02546404	     27.17717999	     45.00000000	    -45.00000000	   1720.00426444	    429.95436703	     21.05934352	   -164.32788072	   2520.49556753	    175.26283303	     11.19651226	     12.57721287	    -14.24659649	    -45.00000000	    -32.45390990	     45.00000000	    -45.00000000	   4058.40556426	  -4607.69183171	     23.47142302	     23.35363701	   2870.24361118	   -311.18952409	     12.43656175	    -14.30594482
     11.18000000	     25.31672130	     34.38044233	     50.76357409	     55.00924727	    763.95035879	    -33.20555014	     12.92976363	     35.88131375	     27.42534464	     45.00000000	    -45.00000000	   1719.83398495	    429.60963081	     21.00405839	   -164.11796128	   2520.92417779	    174.65903168	     11.02127120	     12.70937199	    -14.30704052	    -45.00000000	    -32.31998800	     45.00000000	    -45.00000000	   4058.75399993	  -4607.64419059	     23.46178947	     23.02536204	   2870.06844464	   -311.70266844	     12.65871653	    -14.38055225
     11.19000000	     25.59582885	     34.48997197	     50.35682357	     55.29182219	    763.10389051	    -33.20879193	     12.74875159	     36.18860248	     27.31660172	     45.00000000	    -45.00000000	   1720.04180143	    429.92442007	     20.74092432	   -163.41290616	   2520.70588277	    174.04043053	     11.05315812	     12.62153472	    -14.38381099	    -45.00000000	    -32.31228446	     45.00000000	    -45.00000000	   4058.54766912	  -4607.86046679	     23.29178324	     22.78388939	   2870.09906713	   -312.33351808	     12.63442916	    -14.25828110
     11.20000000	     25.47196397	     34.71052538	     50.48103394	     55.48535647	    762.30433797	    -33.21008845	     12.93624795	     35.87414734	     26.94291627	     45.00000000	    -45.00000000	   1719.87255600	    429.88514045	     21.06476199	   -163.07517432	   2520.95592525	    173.34262430	     10.98022429	     12.68670251	    -14.50132244	    -45.00000000	    -32.16606723	     45.00000000	    -45.00000000	   4058.61014304	  -4607.76245341	     23.26838932	     22.37768797	   2869.93032394	   -312.93118075	     12.65883491	    -14.16810659
     11.21000000	     25.61161305	     34.69489528	     50.30360648	     55.58885207	    761.55452285	    -33.20697552	     12.70497650	     36.21129737	     27.20081521	     45.00000000	    -45.00000000	   1720.19193039	    429.90638751	     20.47191014	   -162.69690916	   2520.84330609	    172.67599723	     10.94125762	     12.67991602	    -14.44467738	    -45.00000000	    -32.13771284	     45.00000000	    -45.00000000	   4058.70709554	  -4607.86371629	     23.16539293	     21.95256367	   2869.93635532	   -313.57802897	     12.75039479	    -14.15575220
     11.22000000	     25.52042376	     34.87119985	     50.36095379	     55.60235358	    760.85327786	    -33.19767254	     12.82761557	     35.99939111	     27.09108958	     45.00000000	    -45.00000000	   1719.90204753	    429.72813750	     20.69350783	   -162.25291199	   2521.09510198	    171.85219441	     10.84432385	     12.78508799	    -14.60273044	    -45.00000000	    -32.14491945	     45.00000000	    -45.00000000	   4058.73908986	  -4607.85897436	     23.07303714	     21.80090730	   2869.76731010	   -314.30481020	     12.77487091	    -14.06992555
